<svg width="128" height="27" viewBox="0 0 128 27" fill="none" xmlns="http://www.w3.org/2000/svg">
<path d="M6.53004 26.5939C5.27525 26.5939 4.15703 26.3762 3.17539 25.9409C2.19375 25.497 1.41698 24.844 0.845064 23.9819C0.281688 23.1112 0 22.0271 0 20.7297C0 19.6371 0.200596 18.7194 0.601788 17.9768C1.00298 17.2342 1.54928 16.6367 2.2407 16.1842C2.93211 15.7318 3.71743 15.3904 4.59663 15.1599C5.48438 14.9295 6.4148 14.7673 7.3879 14.6734C8.53173 14.5539 9.45362 14.4429 10.1536 14.3405C10.8535 14.2295 11.3614 14.0673 11.6772 13.8539C11.9931 13.6405 12.151 13.3247 12.151 12.9064V12.8296C12.151 12.0187 11.8949 11.3913 11.3828 10.9474C10.8791 10.5035 10.1621 10.2816 9.23168 10.2816C8.25004 10.2816 7.469 10.4993 6.88855 10.9346C6.3081 11.3614 5.92398 11.8992 5.73619 12.5479L0.691416 12.1382C0.947496 10.9431 1.45112 9.91029 2.20229 9.03962C2.95345 8.16041 3.92229 7.48607 5.10879 7.01659C6.30383 6.53857 7.68666 6.29957 9.25729 6.29957C10.3499 6.29957 11.3956 6.42761 12.3943 6.68368C13.4015 6.93976 14.2935 7.33669 15.0703 7.87446C15.8556 8.41222 16.4745 9.10364 16.9269 9.9487C17.3793 10.7852 17.6055 11.7882 17.6055 12.9576V21.0498C17.6055 23.9066 15.2895 26.2226 12.4327 26.2226V23.4953H12.279C11.9632 24.1099 11.5407 24.652 11.0114 25.1214C10.4822 25.5824 9.84627 25.9452 9.10364 26.2098C8.36101 26.4659 7.50314 26.5939 6.53004 26.5939ZM8.09212 22.8295C8.89451 22.8295 9.603 22.6716 10.2176 22.3558C10.8322 22.0314 11.3145 21.5961 11.6644 21.0498C12.0144 20.5035 12.1894 19.8846 12.1894 19.1932V17.1061C12.0187 17.2171 11.7839 17.3195 11.4852 17.4134C11.195 17.4988 10.8663 17.5799 10.4993 17.6567C10.1322 17.725 9.76518 17.789 9.39813 17.8488C9.03108 17.9 8.69818 17.9469 8.39942 17.9896C7.75922 18.0835 7.20011 18.2329 6.7221 18.4377C6.24408 18.6426 5.87277 18.92 5.60815 19.27C5.34353 19.6114 5.21123 20.0382 5.21123 20.5504C5.21123 21.293 5.48011 21.8607 6.01788 22.2533C6.56418 22.6375 7.2556 22.8295 8.09212 22.8295Z" fill="#5D5FEF"/>
<path d="M20.1368 26.2226V0H25.5913V9.85908H25.7578C25.9968 9.32984 26.3425 8.79208 26.7949 8.24577C27.2559 7.69093 27.8534 7.22999 28.5875 6.86294C29.3301 6.48736 30.252 6.29957 31.3531 6.29957C32.7872 6.29957 34.1103 6.67515 35.3224 7.42632C36.5345 8.16895 37.5033 9.29143 38.2289 10.7938C38.9544 12.2876 39.3172 14.1612 39.3172 16.4147C39.3172 18.6085 38.963 20.4608 38.2545 21.9717C37.5545 23.474 36.5985 24.6135 35.3864 25.3903C34.1828 26.1586 32.8341 26.5427 31.3403 26.5427C30.2819 26.5427 29.3813 26.3677 28.6387 26.0177C27.9046 25.6677 27.3028 25.2281 26.8333 24.6989C26.3638 24.1611 26.0053 23.6191 25.7578 23.0728H25.5145V26.2226H20.1368ZM25.4761 16.3891C25.4761 17.5585 25.6383 18.5786 25.9627 19.4493C26.287 20.3199 26.7565 20.9986 27.3711 21.4851C27.9857 21.9631 28.7326 22.2021 29.6118 22.2021C30.4995 22.2021 31.2507 21.9588 31.8653 21.4723C32.4799 20.9772 32.9451 20.2943 33.2609 19.4237C33.5853 18.5444 33.7475 17.5329 33.7475 16.3891C33.7475 15.2538 33.5896 14.2551 33.2737 13.393C32.9579 12.5308 32.4927 11.8565 31.8781 11.3699C31.2635 10.8834 30.5081 10.6401 29.6118 10.6401C28.7241 10.6401 27.9729 10.8749 27.3583 11.3443C26.7522 11.8138 26.287 12.4796 25.9627 13.3418C25.6383 14.2039 25.4761 15.2197 25.4761 16.3891Z" fill="#5D5FEF"/>
<path d="M46.6085 26.2226C43.596 26.2226 41.1539 23.7805 41.1539 20.7681V6.55564H46.3524V10.0255H46.5828C46.9926 8.87317 47.6755 7.96408 48.6315 7.29827C49.5875 6.63247 50.7313 6.29957 52.063 6.29957C53.4116 6.29957 54.5597 6.63674 55.5072 7.31108C56.4547 7.97689 57.0864 8.8817 57.4022 10.0255H57.6071C58.0083 8.89878 58.7338 7.99823 59.7838 7.32388C60.8422 6.64101 62.0928 6.29957 63.5353 6.29957C65.3706 6.29957 66.8601 6.88428 68.0039 8.05371C69.1563 9.21461 69.7325 10.8621 69.7325 12.9961V26.2226H64.2908V14.0716C64.2908 12.979 64.0005 12.1595 63.4201 11.6132C62.8396 11.0669 62.1141 10.7938 61.2434 10.7938C60.2532 10.7938 59.4807 11.1096 58.9259 11.7413C58.3711 12.3644 58.0936 13.1881 58.0936 14.2124V26.2226H52.8056V13.9564C52.8056 12.9918 52.5282 12.2235 51.9733 11.6516C51.427 11.0797 50.7057 10.7938 49.8094 10.7938C49.2034 10.7938 48.6571 10.9474 48.1705 11.2547C47.6925 11.5535 47.3127 11.976 47.031 12.5223C46.7493 13.0601 46.6085 13.6917 46.6085 14.4173V26.2226Z" fill="#5D5FEF"/>
<path d="M75.2149 26.5544C74.3698 26.5544 73.6442 26.2556 73.0382 25.6581C72.4407 25.0521 72.1419 24.3265 72.1419 23.4814C72.1419 22.6449 72.4407 21.9279 73.0382 21.3304C73.6442 20.7328 74.3698 20.4341 75.2149 20.4341C76.0343 20.4341 76.7513 20.7328 77.3659 21.3304C77.9805 21.9279 78.2878 22.6449 78.2878 23.4814C78.2878 24.0448 78.1427 24.5612 77.8525 25.0307C77.5708 25.4917 77.1995 25.863 76.7385 26.1447C76.2776 26.4178 75.7697 26.5544 75.2149 26.5544Z" fill="#EF5DA8"/>
<path d="M88.7037 0V26.2226H85.6819V0H88.7037Z" fill="#5D5FEF"/>
<path d="M97.8623 26.6835C96.616 26.6835 95.485 26.4488 94.4692 25.9793C93.4534 25.5013 92.6468 24.8141 92.0492 23.9179C91.4517 23.013 91.153 21.9204 91.153 20.64C91.153 19.5133 91.3749 18.5999 91.8188 17.9C92.2626 17.1915 92.8559 16.6367 93.5985 16.2355C94.3412 15.8343 95.1606 15.5355 96.0569 15.3392C96.9617 15.1343 97.8708 14.9721 98.7841 14.8526C99.9792 14.699 100.948 14.5837 101.691 14.5069C102.442 14.4216 102.988 14.2807 103.33 14.0844C103.68 13.8881 103.855 13.5466 103.855 13.0601V12.9576C103.855 11.6943 103.509 10.7127 102.817 10.0127C102.135 9.31277 101.097 8.9628 99.706 8.9628C98.2634 8.9628 97.1324 9.27863 96.313 9.91029C95.4935 10.542 94.9173 11.2163 94.5844 11.9333L91.7163 10.909C92.2285 9.71396 92.9114 8.78354 93.765 8.11773C94.6271 7.44339 95.5661 6.97391 96.5819 6.70929C97.6062 6.43614 98.6134 6.29957 99.6036 6.29957C100.235 6.29957 100.961 6.37639 101.78 6.53004C102.608 6.67515 103.406 6.97818 104.175 7.43912C104.951 7.90006 105.596 8.59575 106.108 9.52617C106.62 10.4566 106.876 11.7029 106.876 13.2649V26.2226H103.855V23.5593H103.701C103.496 23.9861 103.155 24.4428 102.677 24.9294C102.199 25.4159 101.563 25.8299 100.769 26.1714C99.9749 26.5128 99.0061 26.6835 97.8623 26.6835ZM98.3232 23.9691C99.5182 23.9691 100.525 23.7343 101.345 23.2649C102.173 22.7954 102.796 22.1893 103.214 21.4467C103.641 20.7041 103.855 19.923 103.855 19.1036V16.3379C103.726 16.4915 103.445 16.6324 103.009 16.7604C102.583 16.8799 102.088 16.9866 101.524 17.0805C100.969 17.1659 100.427 17.2427 99.8981 17.311C99.3774 17.3708 98.9549 17.422 98.6305 17.4646C97.8452 17.5671 97.1111 17.7335 96.4282 17.964C95.7539 18.1859 95.2076 18.5231 94.7893 18.9755C94.3796 19.4194 94.1747 20.0254 94.1747 20.7937C94.1747 21.8436 94.5631 22.6375 95.3399 23.1752C96.1252 23.7045 97.1196 23.9691 98.3232 23.9691Z" fill="#5D5FEF"/>
<path d="M110.638 26.2226V0H113.66V9.67982H113.916C114.138 9.33838 114.445 8.90304 114.838 8.37381C115.239 7.83604 115.811 7.35803 116.553 6.93977C117.305 6.51297 118.32 6.29957 119.601 6.29957C121.257 6.29957 122.716 6.71356 123.98 7.54155C125.243 8.36954 126.229 9.54324 126.937 11.0627C127.646 12.5821 128 14.3746 128 16.4403C128 18.5231 127.646 20.3285 126.937 21.8564C126.229 23.3758 125.247 24.5538 123.993 25.3903C122.738 26.2183 121.291 26.6323 119.652 26.6323C118.389 26.6323 117.377 26.4232 116.617 26.0049C115.858 25.5781 115.273 25.0958 114.863 24.5581C114.454 24.0118 114.138 23.5593 113.916 23.2008H113.557V26.2226H110.638ZM113.608 16.3891C113.608 17.8744 113.826 19.1847 114.261 20.3199C114.697 21.4467 115.333 22.3302 116.169 22.9704C117.006 23.602 118.03 23.9179 119.242 23.9179C120.506 23.9179 121.56 23.585 122.405 22.9191C123.258 22.2448 123.899 21.34 124.325 20.2047C124.761 19.0609 124.978 17.789 124.978 16.3891C124.978 15.0063 124.765 13.76 124.338 12.6503C123.92 11.5321 123.284 10.6487 122.43 9.99992C121.585 9.34265 120.523 9.01401 119.242 9.01401C118.013 9.01401 116.98 9.32557 116.144 9.9487C115.307 10.5633 114.675 11.4254 114.249 12.5351C113.822 13.6363 113.608 14.9209 113.608 16.3891Z" fill="#5D5FEF"/>
</svg>
