<svg width="169" height="176" viewBox="0 0 169 176" fill="none" xmlns="http://www.w3.org/2000/svg">
<g clip-path="url(#clip0_605_79470)">
<path d="M65.3749 176C101.48 176 130.75 170.854 130.75 164.506C130.75 158.158 101.48 153.011 65.3749 153.011C29.2693 153.011 0 158.158 0 164.506C0 170.854 29.2693 176 65.3749 176Z" fill="#3F3D56"/>
<path d="M105.11 127.176C140.397 127.176 169.002 98.7063 169.002 63.5878C169.002 28.4692 140.397 0 105.11 0C69.824 0 41.2188 28.4692 41.2188 63.5878C41.2188 98.7063 69.824 127.176 105.11 127.176Z" fill="#3F3D56"/>
<path opacity="0.05" d="M105.108 116.081C134.238 116.081 157.852 92.5792 157.852 63.5877C157.852 34.5962 134.238 11.094 105.108 11.094C75.9778 11.094 52.3633 34.5962 52.3633 63.5877C52.3633 92.5792 75.9778 116.081 105.108 116.081Z" fill="black"/>
<path opacity="0.05" d="M105.108 106.611C128.982 106.611 148.336 87.3487 148.336 63.5877C148.336 39.8266 128.982 20.5645 105.108 20.5645C81.2331 20.5645 61.8789 39.8266 61.8789 63.5877C61.8789 87.3487 81.2331 106.611 105.108 106.611Z" fill="black"/>
<path opacity="0.05" d="M105.107 94.4346C122.225 94.4346 136.102 80.624 136.102 63.5878C136.102 46.5516 122.225 32.741 105.107 32.741C87.9899 32.741 74.1133 46.5516 74.1133 63.5878C74.1133 80.624 87.9899 94.4346 105.107 94.4346Z" fill="black"/>
<path d="M41.7845 69.2786C41.7845 69.2786 36.7613 83.3506 38.9938 88.3499C41.2264 93.3491 44.7612 98.1633 44.7612 98.1633C44.7612 98.1633 43.4589 70.2044 41.7845 69.2786Z" fill="#D0CDE1"/>
<path opacity="0.1" d="M41.7845 69.2786C41.7845 69.2786 36.7613 83.3506 38.9938 88.3499C41.2264 93.3491 44.7612 98.1633 44.7612 98.1633C44.7612 98.1633 43.4589 70.2044 41.7845 69.2786Z" fill="black"/>
<path d="M45.319 101.866C45.319 101.866 44.9469 105.384 44.7609 105.57C44.5748 105.755 44.9469 106.125 44.7609 106.681C44.5748 107.236 44.3888 107.977 44.7609 108.162C45.133 108.347 42.7144 124.641 42.7144 124.641C42.7144 124.641 36.761 132.418 39.1796 144.638L39.9238 157.044C39.9238 157.044 45.6911 157.414 45.6911 155.377C45.6911 155.377 45.319 152.97 45.319 151.859C45.319 150.748 46.2492 150.748 45.6911 150.193C45.133 149.637 45.133 149.267 45.133 149.267C45.133 149.267 46.0632 148.526 45.8771 148.341C45.6911 148.156 47.5515 135.01 47.5515 135.01C47.5515 135.01 49.598 132.973 49.598 131.862V130.751C49.598 130.751 50.5282 128.344 50.5282 128.159C50.5282 127.974 55.5513 116.679 55.5513 116.679L57.5978 124.826L59.8303 136.491C59.8303 136.491 60.9466 147.045 63.1791 151.119C63.1791 151.119 67.086 164.45 67.086 164.08C67.086 163.709 73.5975 162.783 73.4114 161.117C73.2254 159.451 69.5045 136.121 69.5045 136.121L70.4348 101.496L45.319 101.866Z" fill="#2F2E41"/>
<path d="M40.2943 156.118C40.2943 156.118 35.2711 165.931 38.6199 166.301C41.9687 166.672 43.271 166.672 44.7593 165.19C45.573 164.381 47.2207 163.294 48.5474 162.475C49.3334 161.998 49.9685 161.31 50.3796 160.49C50.7907 159.67 50.9613 158.751 50.8718 157.839C50.7737 156.934 50.4336 156.187 49.5964 156.118C47.3639 155.932 44.7593 153.896 44.7593 153.896L40.2943 156.118Z" fill="#2F2E41"/>
<path d="M68.013 163.339C68.013 163.339 62.9899 173.152 66.3386 173.523C69.6874 173.893 70.9897 173.893 72.4781 172.412C73.2917 171.602 74.9395 170.515 76.2661 169.697C77.0522 169.219 77.6872 168.531 78.0983 167.711C78.5095 166.891 78.6801 165.973 78.5906 165.061C78.4925 164.155 78.1524 163.408 77.3152 163.339C75.0826 163.154 72.4781 161.117 72.4781 161.117L68.013 163.339Z" fill="#2F2E41"/>
<path d="M62.7073 53.2191C67.0264 53.2191 70.5278 49.7343 70.5278 45.4357C70.5278 41.1371 67.0264 37.6523 62.7073 37.6523C58.3881 37.6523 54.8867 41.1371 54.8867 45.4357C54.8867 49.7343 58.3881 53.2191 62.7073 53.2191Z" fill="#FFB8B8"/>
<path d="M57.6797 47.9932C57.6797 47.9932 52.0936 58.2227 51.6467 58.2227C51.1998 58.2227 61.7017 61.5584 61.7017 61.5584C61.7017 61.5584 64.6064 51.7737 65.0533 50.8841L57.6797 47.9932Z" fill="#FFB8B8"/>
<path d="M66.2468 59.1872C66.2468 59.1872 55.0843 53.077 53.968 53.2622C52.8517 53.4473 40.945 63.8162 41.1311 68.0748C41.3171 72.3335 42.8054 79.3695 42.8054 79.3695C42.8054 79.3695 43.3636 98.9963 44.4798 99.1814C45.5961 99.3666 44.2938 102.699 44.6659 102.699C45.038 102.699 70.7119 102.699 70.8979 102.144C71.0839 101.588 66.2468 59.1872 66.2468 59.1872Z" fill="#D0CDE1"/>
<path d="M72.4787 103.162C72.4787 103.162 76.0135 113.902 73.0368 113.531C70.0601 113.161 68.7578 104.273 68.7578 104.273L72.4787 103.162Z" fill="#FFB8B8"/>
<path d="M62.9913 58.5392C62.9913 58.5392 56.1077 60.0205 57.224 69.2784C58.3403 78.5363 60.3867 87.7942 60.3867 87.7942L67.2703 102.792L68.0145 105.569L73.0376 104.273L69.3168 82.7949C69.3168 82.7949 68.0145 59.8353 66.3401 59.0947C65.2842 58.6467 64.1361 58.4562 62.9913 58.5392Z" fill="#D0CDE1"/>
<path opacity="0.1" d="M58.8047 87.5167L67.3628 102.7L60.1524 86.7009L58.8047 87.5167Z" fill="black"/>
<path d="M70.4916 43.1438L70.5174 42.549L71.7063 42.8435C71.6935 42.6526 71.6393 42.4666 71.5473 42.2986C71.4554 42.1305 71.3278 41.9844 71.1736 41.8701L72.4399 41.7997C71.3773 40.2968 70.0197 39.0239 68.449 38.0578C66.8783 37.0918 65.1271 36.4525 63.3013 36.1788C60.5622 35.7837 57.5122 36.3554 55.6339 38.3786C54.7228 39.36 54.1504 40.6079 53.7432 41.8811C52.9931 44.226 52.8403 47.0212 54.4042 48.9273C55.9937 50.8645 58.7701 51.2439 61.2714 51.4837C62.1516 51.568 63.0739 51.6465 63.8895 51.3067C63.9803 50.3756 63.8606 49.4361 63.5391 48.5571C63.4052 48.285 63.3412 47.9841 63.3528 47.6814C63.464 46.9407 64.4566 46.7541 65.2023 46.8542C65.948 46.9543 66.8446 47.1074 67.3346 46.539C67.6721 46.1476 67.6522 45.5775 67.6969 45.0636C67.8186 43.6645 70.4788 43.4371 70.4916 43.1438Z" fill="#2F2E41"/>
<path d="M118.46 166.088C123.492 166.088 127.572 162.027 127.572 157.019C127.572 152.01 123.492 147.95 118.46 147.95C113.427 147.95 109.348 152.01 109.348 157.019C109.348 162.027 113.427 166.088 118.46 166.088Z" fill="#5D5FEF"/>
<path d="M11.4443 162.924C16.4768 162.924 20.5565 158.864 20.5565 153.855C20.5565 148.846 16.4768 144.786 11.4443 144.786C6.41171 144.786 2.33203 148.846 2.33203 153.855C2.33203 158.864 6.41171 162.924 11.4443 162.924Z" fill="#5D5FEF"/>
<path d="M11.4443 148.372C15.0724 148.372 18.0136 145.444 18.0136 141.833C18.0136 138.223 15.0724 135.295 11.4443 135.295C7.81617 135.295 4.875 138.223 4.875 141.833C4.875 145.444 7.81617 148.372 11.4443 148.372Z" fill="#5D5FEF"/>
<path d="M11.4433 136.35C14.0181 136.35 16.1054 134.273 16.1054 131.71C16.1054 129.147 14.0181 127.07 11.4433 127.07C8.86853 127.07 6.78125 129.147 6.78125 131.71C6.78125 134.273 8.86853 136.35 11.4433 136.35Z" fill="#5D5FEF"/>
</g>
<defs>
<clipPath id="clip0_605_79470">
<rect width="169" height="176" fill="white"/>
</clipPath>
</defs>
</svg>
