<svg width="129" height="27" viewBox="0 0 129 27" fill="none" xmlns="http://www.w3.org/2000/svg">
<path d="M6.93922 26.5939C5.68442 26.5939 4.56621 26.3762 3.58457 25.9409C2.60293 25.497 1.82616 24.844 1.25424 23.9819C0.690868 23.1112 0.40918 22.0271 0.40918 20.7297C0.40918 19.6371 0.609776 18.7194 1.01097 17.9768C1.41216 17.2342 1.95846 16.6367 2.64988 16.1842C3.34129 15.7318 4.12661 15.3904 5.00581 15.1599C5.89356 14.9295 6.82398 14.7673 7.79708 14.6734C8.94091 14.5539 9.8628 14.4429 10.5627 14.3405C11.2627 14.2295 11.7706 14.0673 12.0864 13.8539C12.4023 13.6405 12.5602 13.3247 12.5602 12.9064V12.8296C12.5602 12.0187 12.3041 11.3913 11.7919 10.9474C11.2883 10.5035 10.5713 10.2816 9.64086 10.2816C8.65922 10.2816 7.87818 10.4993 7.29773 10.9346C6.71728 11.3614 6.33316 11.8992 6.14537 12.5479L1.1006 12.1382C1.35668 10.9431 1.8603 9.91029 2.61147 9.03962C3.36263 8.16041 4.33147 7.48607 5.51797 7.01659C6.71301 6.53857 8.09584 6.29957 9.66647 6.29957C10.7591 6.29957 11.8047 6.42761 12.8034 6.68368C13.8107 6.93976 14.7027 7.33669 15.4795 7.87446C16.2648 8.41222 16.8837 9.10364 17.3361 9.9487C17.7885 10.7852 18.0147 11.7882 18.0147 12.9576V21.0498C18.0147 23.9066 15.6987 26.2226 12.8419 26.2226V23.4953H12.6882C12.3724 24.1099 11.9498 24.652 11.4206 25.1214C10.8914 25.5824 10.2555 25.9452 9.51282 26.2098C8.77019 26.4659 7.91232 26.5939 6.93922 26.5939ZM8.5013 22.8295C9.30369 22.8295 10.0122 22.6716 10.6268 22.3558C11.2414 22.0314 11.7236 21.5961 12.0736 21.0498C12.4236 20.5035 12.5986 19.8846 12.5986 19.1932V17.1061C12.4279 17.2171 12.1931 17.3195 11.8944 17.4134C11.6041 17.4988 11.2755 17.5799 10.9085 17.6567C10.5414 17.725 10.1744 17.789 9.80731 17.8488C9.44026 17.9 9.10736 17.9469 8.8086 17.9896C8.1684 18.0835 7.60929 18.2329 7.13128 18.4377C6.65326 18.6426 6.28194 18.92 6.01733 19.27C5.75271 19.6114 5.62041 20.0382 5.62041 20.5504C5.62041 21.293 5.88929 21.8607 6.42706 22.2533C6.97336 22.6375 7.66478 22.8295 8.5013 22.8295Z" fill="white"/>
<path d="M20.546 26.2226V0H26.0005V9.85908H26.167C26.406 9.32984 26.7517 8.79208 27.2041 8.24577C27.665 7.69093 28.2626 7.22999 28.9967 6.86294C29.7393 6.48736 30.6612 6.29957 31.7623 6.29957C33.1964 6.29957 34.5194 6.67515 35.7316 7.42632C36.9437 8.16895 37.9125 9.29143 38.6381 10.7938C39.3636 12.2876 39.7264 14.1612 39.7264 16.4147C39.7264 18.6085 39.3722 20.4608 38.6637 21.9717C37.9637 23.474 37.0077 24.6135 35.7956 25.3903C34.592 26.1586 33.2433 26.5427 31.7495 26.5427C30.691 26.5427 29.7905 26.3677 29.0479 26.0177C28.3138 25.6677 27.712 25.2281 27.2425 24.6989C26.773 24.1611 26.4145 23.6191 26.167 23.0728H25.9237V26.2226H20.546ZM25.8853 16.3891C25.8853 17.5585 26.0475 18.5786 26.3718 19.4493C26.6962 20.3199 27.1657 20.9986 27.7803 21.4851C28.3949 21.9631 29.1418 22.2021 30.021 22.2021C30.9087 22.2021 31.6599 21.9588 32.2745 21.4723C32.8891 20.9772 33.3543 20.2943 33.6701 19.4237C33.9945 18.5444 34.1567 17.5329 34.1567 16.3891C34.1567 15.2538 33.9987 14.2551 33.6829 13.393C33.3671 12.5308 32.9019 11.8565 32.2873 11.3699C31.6727 10.8834 30.9173 10.6401 30.021 10.6401C29.1332 10.6401 28.3821 10.8749 27.7675 11.3443C27.1614 11.8138 26.6962 12.4796 26.3718 13.3418C26.0475 14.2039 25.8853 15.2197 25.8853 16.3891Z" fill="white"/>
<path d="M47.0176 26.2226C44.0052 26.2226 41.5631 23.7805 41.5631 20.7681V6.55564H46.7616V10.0255H46.992C47.4018 8.87317 48.0846 7.96408 49.0407 7.29827C49.9967 6.63247 51.1405 6.29957 52.4721 6.29957C53.8208 6.29957 54.9689 6.63674 55.9164 7.31108C56.8639 7.97689 57.4956 8.8817 57.8114 10.0255H58.0163C58.4175 8.89878 59.143 7.99823 60.1929 7.32388C61.2514 6.64101 62.5019 6.29957 63.9445 6.29957C65.7798 6.29957 67.2693 6.88428 68.4131 8.05371C69.5655 9.21461 70.1416 10.8621 70.1416 12.9961V26.2226H64.7V14.0716C64.7 12.979 64.4097 12.1595 63.8293 11.6132C63.2488 11.0669 62.5233 10.7938 61.6526 10.7938C60.6624 10.7938 59.8899 11.1096 59.3351 11.7413C58.7802 12.3644 58.5028 13.1881 58.5028 14.2124V26.2226H53.2148V13.9564C53.2148 12.9918 52.9373 12.2235 52.3825 11.6516C51.8362 11.0797 51.1149 10.7938 50.2186 10.7938C49.6126 10.7938 49.0663 10.9474 48.5797 11.2547C48.1017 11.5535 47.7219 11.976 47.4402 12.5223C47.1585 13.0601 47.0176 13.6917 47.0176 14.4173V26.2226Z" fill="white"/>
<path d="M75.624 26.5544C74.7789 26.5544 74.0534 26.2556 73.4473 25.6581C72.8498 25.0521 72.551 24.3265 72.551 23.4814C72.551 22.6449 72.8498 21.9279 73.4473 21.3304C74.0534 20.7328 74.7789 20.4341 75.624 20.4341C76.4434 20.4341 77.1605 20.7328 77.7751 21.3304C78.3896 21.9279 78.6969 22.6449 78.6969 23.4814C78.6969 24.0448 78.5518 24.5612 78.2616 25.0307C77.9799 25.4917 77.6086 25.863 77.1477 26.1447C76.6867 26.4178 76.1788 26.5544 75.624 26.5544Z" fill="#EF5DA8"/>
<path d="M89.1128 0V26.2226H86.0911V0H89.1128Z" fill="white"/>
<path d="M98.2714 26.6835C97.0251 26.6835 95.8941 26.4488 94.8783 25.9793C93.8625 25.5013 93.0559 24.8141 92.4584 23.9179C91.8608 23.013 91.5621 21.9204 91.5621 20.64C91.5621 19.5133 91.784 18.5999 92.2279 17.9C92.6718 17.1915 93.265 16.6367 94.0076 16.2355C94.7503 15.8343 95.5697 15.5355 96.466 15.3392C97.3708 15.1343 98.2799 14.9721 99.1933 14.8526C100.388 14.699 101.357 14.5837 102.1 14.5069C102.851 14.4216 103.397 14.2807 103.739 14.0844C104.089 13.8881 104.264 13.5466 104.264 13.0601V12.9576C104.264 11.6943 103.918 10.7127 103.227 10.0127C102.544 9.31277 101.507 8.9628 100.115 8.9628C98.6726 8.9628 97.5415 9.27863 96.7221 9.91029C95.9026 10.542 95.3265 11.2163 94.9936 11.9333L92.1255 10.909C92.6376 9.71396 93.3205 8.78354 94.1741 8.11773C95.0362 7.44339 95.9752 6.97391 96.991 6.70929C98.0153 6.43614 99.0225 6.29957 100.013 6.29957C100.644 6.29957 101.37 6.37639 102.189 6.53004C103.017 6.67515 103.816 6.97818 104.584 7.43912C105.361 7.90006 106.005 8.59575 106.517 9.52617C107.029 10.4566 107.285 11.7029 107.285 13.2649V26.2226H104.264V23.5593H104.11C103.905 23.9861 103.564 24.4428 103.086 24.9294C102.608 25.4159 101.972 25.8299 101.178 26.1714C100.384 26.5128 99.4152 26.6835 98.2714 26.6835ZM98.7323 23.9691C99.9274 23.9691 100.935 23.7343 101.754 23.2649C102.582 22.7954 103.205 22.1893 103.623 21.4467C104.05 20.7041 104.264 19.923 104.264 19.1036V16.3379C104.136 16.4915 103.854 16.6324 103.419 16.7604C102.992 16.8799 102.497 16.9866 101.933 17.0805C101.378 17.1659 100.836 17.2427 100.307 17.311C99.7865 17.3708 99.364 17.422 99.0396 17.4646C98.2543 17.5671 97.5202 17.7335 96.8373 17.964C96.163 18.1859 95.6167 18.5231 95.1984 18.9755C94.7887 19.4194 94.5838 20.0254 94.5838 20.7937C94.5838 21.8436 94.9722 22.6375 95.749 23.1752C96.5343 23.7045 97.5287 23.9691 98.7323 23.9691Z" fill="white"/>
<path d="M111.047 26.2226V0H114.069V9.67982H114.325C114.547 9.33838 114.854 8.90304 115.247 8.37381C115.648 7.83604 116.22 7.35803 116.963 6.93977C117.714 6.51297 118.729 6.29957 120.01 6.29957C121.666 6.29957 123.126 6.71356 124.389 7.54155C125.652 8.36954 126.638 9.54324 127.347 11.0627C128.055 12.5821 128.409 14.3746 128.409 16.4403C128.409 18.5231 128.055 20.3285 127.347 21.8564C126.638 23.3758 125.656 24.5538 124.402 25.3903C123.147 26.2183 121.7 26.6323 120.061 26.6323C118.798 26.6323 117.786 26.4232 117.027 26.0049C116.267 25.5781 115.682 25.0958 115.272 24.5581C114.863 24.0118 114.547 23.5593 114.325 23.2008H113.966V26.2226H111.047ZM114.018 16.3891C114.018 17.8744 114.235 19.1847 114.671 20.3199C115.106 21.4467 115.742 22.3302 116.578 22.9704C117.415 23.602 118.439 23.9179 119.651 23.9179C120.915 23.9179 121.969 23.585 122.814 22.9191C123.668 22.2448 124.308 21.34 124.735 20.2047C125.17 19.0609 125.388 17.789 125.388 16.3891C125.388 15.0063 125.174 13.76 124.747 12.6503C124.329 11.5321 123.693 10.6487 122.84 9.99992C121.994 9.34265 120.932 9.01401 119.651 9.01401C118.422 9.01401 117.389 9.32557 116.553 9.9487C115.716 10.5633 115.085 11.4254 114.658 12.5351C114.231 13.6363 114.018 14.9209 114.018 16.3891Z" fill="white"/>
</svg>
