<svg width="294" height="176" viewBox="0 0 294 176" fill="none" xmlns="http://www.w3.org/2000/svg">
<g clip-path="url(#clip0_605_79324)">
<path d="M49.3361 167.533C49.1006 167.543 48.8674 167.482 48.6681 167.356C48.4689 167.23 48.3132 167.046 48.2223 166.829C48.1313 166.612 48.1094 166.373 48.1596 166.143C48.2097 165.913 48.3295 165.704 48.5026 165.544L48.5814 165.232C48.5711 165.207 48.5606 165.182 48.5501 165.157C48.3128 164.598 47.9152 164.121 47.4071 163.787C46.8991 163.452 46.3033 163.275 45.6946 163.277C45.0859 163.28 44.4914 163.461 43.9859 163.799C43.4803 164.138 43.0862 164.617 42.8531 165.178C41.9213 167.416 40.735 169.658 40.4429 172.025C40.3143 173.071 40.3685 174.132 40.6033 175.159C38.4148 170.398 37.2784 165.223 37.2711 159.985C37.2706 158.67 37.3438 157.357 37.4904 156.05C37.6115 154.98 37.7795 153.916 37.9945 152.861C39.1675 147.133 41.6859 141.765 45.343 137.196C47.113 136.233 48.5445 134.752 49.4444 132.952C49.7705 132.305 50.0009 131.614 50.1286 130.902C49.9289 130.928 49.3757 127.895 49.5263 127.709C49.248 127.288 48.75 127.078 48.4461 126.667C46.9347 124.623 44.8524 124.98 43.7653 127.758C41.4431 128.927 41.4206 130.865 42.8455 132.73C43.752 133.916 43.8766 135.521 44.672 136.791C44.5902 136.896 44.5051 136.997 44.4232 137.102C42.9273 139.02 41.6235 141.08 40.5306 143.252C40.7964 140.819 40.4791 138.357 39.6049 136.07C38.719 133.938 37.0584 132.143 35.596 130.3C33.8395 128.086 30.2376 129.052 29.9281 131.858C29.9251 131.886 29.9222 131.913 29.9193 131.94C30.1365 132.062 30.3491 132.192 30.5572 132.329C30.8185 132.503 31.021 132.752 31.1382 133.043C31.2553 133.334 31.2816 133.653 31.2136 133.959C31.1456 134.265 30.9865 134.544 30.7572 134.758C30.5278 134.973 30.2389 135.113 29.9282 135.161L29.8964 135.166C29.9738 135.946 30.1106 136.72 30.3056 137.48C28.4295 144.717 32.4797 147.352 38.2629 147.471C38.3906 147.536 38.515 147.601 38.6427 147.663C37.5445 150.767 36.8557 154 36.5936 157.281C36.4451 159.217 36.4539 161.162 36.6198 163.096L36.6099 163.027C36.1909 160.876 35.0405 158.936 33.353 157.533C30.8466 155.479 27.3056 154.723 24.6016 153.072C24.3142 152.888 23.9801 152.79 23.6386 152.789C23.2971 152.788 22.9625 152.885 22.6743 153.068C22.386 153.25 22.1561 153.511 22.0117 153.82C21.8673 154.129 21.8144 154.472 21.8593 154.81C21.8629 154.834 21.8666 154.858 21.8703 154.882C22.2734 155.045 22.6659 155.234 23.0454 155.446C23.2626 155.569 23.4753 155.698 23.6833 155.836C23.9446 156.01 24.1471 156.259 24.2643 156.55C24.3814 156.84 24.4077 157.16 24.3397 157.466C24.2717 157.772 24.1126 158.05 23.8833 158.265C23.6539 158.479 23.365 158.619 23.0543 158.667L23.0225 158.672C22.9996 158.675 22.9799 158.679 22.9571 158.682C23.6458 160.322 24.6124 161.832 25.8146 163.145C26.9876 169.462 32.0258 170.061 37.4151 168.222H37.4184C38.0097 170.784 38.8665 173.279 39.9749 175.665H49.1073C49.1401 175.564 49.1695 175.46 49.199 175.358C48.3537 175.411 47.505 175.361 46.672 175.208C47.3496 174.379 48.0271 173.543 48.7047 172.714C48.7198 172.698 48.734 172.682 48.7473 172.665C49.091 172.241 49.4379 171.819 49.7816 171.395L49.7818 171.394C49.8001 170.093 49.6504 168.796 49.3365 167.533L49.3361 167.533Z" fill="#F2F2F2"/>
<path d="M240.082 167.533C240.317 167.543 240.55 167.482 240.749 167.356C240.949 167.23 241.104 167.046 241.195 166.829C241.286 166.612 241.308 166.373 241.258 166.143C241.208 165.913 241.088 165.704 240.915 165.544L240.836 165.232C240.847 165.207 240.857 165.182 240.868 165.157C241.105 164.598 241.502 164.121 242.011 163.787C242.519 163.452 243.114 163.275 243.723 163.277C244.332 163.28 244.926 163.461 245.432 163.799C245.937 164.138 246.331 164.617 246.565 165.178C247.496 167.416 248.683 169.658 248.975 172.025C249.103 173.071 249.049 174.132 248.814 175.159C251.003 170.398 252.139 165.223 252.147 159.985C252.147 158.67 252.074 157.357 251.927 156.05C251.806 154.98 251.638 153.916 251.423 152.861C250.25 147.133 247.732 141.765 244.075 137.196C242.305 136.233 240.873 134.752 239.973 132.952C239.647 132.305 239.417 131.614 239.289 130.902C239.489 130.928 240.042 127.895 239.891 127.709C240.17 127.288 240.668 127.078 240.972 126.667C242.483 124.623 244.565 124.98 245.652 127.758C247.975 128.927 247.997 130.865 246.572 132.73C245.666 133.916 245.541 135.521 244.746 136.791C244.827 136.896 244.913 136.997 244.994 137.102C246.49 139.02 247.794 141.08 248.887 143.252C248.621 140.819 248.939 138.357 249.813 136.07C250.699 133.938 252.359 132.143 253.822 130.3C255.578 128.086 259.18 129.052 259.49 131.858C259.493 131.886 259.495 131.913 259.498 131.94C259.281 132.062 259.068 132.192 258.86 132.329C258.599 132.503 258.397 132.752 258.279 133.043C258.162 133.334 258.136 133.653 258.204 133.959C258.272 134.265 258.431 134.544 258.66 134.758C258.89 134.973 259.179 135.113 259.489 135.161L259.521 135.166C259.444 135.946 259.307 136.72 259.112 137.48C260.988 144.717 256.938 147.352 251.155 147.471C251.027 147.536 250.903 147.601 250.775 147.663C251.873 150.767 252.562 154 252.824 157.281C252.973 159.217 252.964 161.162 252.798 163.096L252.808 163.027C253.227 160.876 254.377 158.936 256.065 157.533C258.571 155.479 262.112 154.723 264.816 153.072C265.103 152.888 265.438 152.79 265.779 152.789C266.121 152.788 266.455 152.885 266.743 153.068C267.032 153.25 267.262 153.511 267.406 153.82C267.55 154.129 267.603 154.472 267.558 154.81C267.555 154.834 267.551 154.858 267.547 154.882C267.144 155.045 266.752 155.234 266.372 155.446C266.155 155.569 265.942 155.698 265.734 155.836C265.473 156.01 265.27 156.259 265.153 156.55C265.036 156.84 265.01 157.16 265.078 157.466C265.146 157.772 265.305 158.05 265.534 158.265C265.764 158.479 266.053 158.619 266.363 158.667L266.395 158.672C266.418 158.675 266.438 158.679 266.461 158.682C265.772 160.322 264.805 161.832 263.603 163.145C262.43 169.462 257.392 170.061 252.002 168.222H251.999C251.408 170.784 250.551 173.279 249.443 175.665H240.31C240.278 175.564 240.248 175.46 240.219 175.358C241.064 175.411 241.913 175.361 242.746 175.208C242.068 174.379 241.391 173.543 240.713 172.714C240.698 172.698 240.684 172.682 240.67 172.665C240.327 172.241 239.98 171.819 239.636 171.395L239.636 171.394C239.618 170.093 239.767 168.796 240.081 167.533L240.082 167.533Z" fill="#F2F2F2"/>
<path d="M59.8398 175.461H74.5767C77.0972 166.997 74.5902 146.992 77.9124 138.816C84.2862 123.138 92.4288 106.597 107.627 98.9419C114.116 95.6734 121.191 94.3967 128.417 94.4662C138.398 94.5606 148.661 97.2331 158.056 100.775C161.899 102.22 165.707 103.81 169.501 105.434C183.792 111.559 197.927 118.231 213.295 120.034C232.743 122.314 255.607 113.636 260.918 94.9431C264.972 80.6319 257.671 65.7742 250.015 52.9929C242.358 40.2116 233.8 26.5361 235.198 11.738C235.203 11.6884 235.208 11.6337 235.218 11.584C235.744 6.26884 238.926 2.44896 243.371 0H224.019C223.763 13.8046 231.77 25.9897 238.976 38.0209C246.633 50.7972 253.933 65.6599 249.88 79.9712C244.568 98.6588 200.586 76.753 181.139 74.468C175.647 73.8272 184.371 76.1072 179.135 74.468C170.922 71.8998 170.012 95.4548 162.019 91.9974C157.044 89.8415 152.063 87.7005 147.017 85.798C144.927 85.0082 142.793 84.268 140.633 83.5825C140.628 83.5825 140.628 83.5825 140.623 83.5776C126.122 78.9976 110.262 77.2142 96.8634 83.8359C96.7732 83.8806 96.678 83.9253 96.5878 83.97C81.3899 91.6199 73.2473 108.162 66.8735 123.839C61.6071 136.799 62.4354 161.791 59.8398 175.461Z" fill="#F2F2F2"/>
<path d="M141.83 175.028C179.211 175.028 209.515 144.803 209.515 107.518C209.515 70.2339 179.211 40.0088 141.83 40.0088C104.448 40.0088 74.1445 70.2339 74.1445 107.518C74.1445 144.803 104.448 175.028 141.83 175.028Z" fill="white"/>
<path d="M141.635 175.461C74.6676 176.996 73.1992 145.263 73.1992 107.518C73.1992 69.7742 103.986 39.0669 141.829 39.0669C179.671 39.0669 210.458 69.7742 210.458 107.518C210.458 145.263 179.478 175.461 141.635 175.461ZM141.829 40.9504C105.027 40.9504 75.7073 70.8177 75.0876 107.518C74.5112 141.654 110.869 184.25 141.829 174.086C158.431 155.849 205.372 136.206 208.57 107.518C212.636 71.0373 178.63 40.9504 141.829 40.9504V40.9504Z" fill="#3F3D56"/>
<path d="M132.594 142.654C131.425 142.654 130.272 142.383 129.227 141.861C128.181 141.34 127.272 140.582 126.571 139.65L108.105 115.092C107.512 114.303 107.08 113.406 106.834 112.45C106.588 111.495 106.533 110.5 106.673 109.524C106.813 108.547 107.144 107.608 107.648 106.759C108.152 105.91 108.818 105.168 109.609 104.577C110.401 103.985 111.301 103.554 112.259 103.309C113.217 103.065 114.214 103.011 115.193 103.151C116.172 103.29 117.114 103.621 117.965 104.124C118.816 104.627 119.559 105.292 120.152 106.082L132.233 122.146L163.261 75.7256C164.369 74.0696 166.091 72.9202 168.048 72.5303C170.006 72.1403 172.039 72.5416 173.7 73.646C175.361 74.7505 176.514 76.4675 176.906 78.4198C177.298 80.372 176.896 82.3997 175.79 84.0568L138.859 139.31C138.191 140.309 137.292 141.134 136.239 141.716C135.185 142.297 134.007 142.618 132.803 142.652C132.733 142.653 132.663 142.654 132.594 142.654Z" fill="#F2F2F2"/>
<path d="M2.15778e-06 175.514C-0.000188774 175.578 0.0122932 175.641 0.0367262 175.7C0.0611592 175.759 0.0970635 175.813 0.142373 175.858C0.187682 175.903 0.241498 175.939 0.300733 175.963C0.359968 175.988 0.423454 176 0.487529 176H293.512C293.642 176 293.766 175.949 293.857 175.858C293.949 175.766 294 175.643 294 175.514C294 175.385 293.949 175.261 293.857 175.17C293.766 175.079 293.642 175.028 293.512 175.028H0.487529C0.423455 175.027 0.359973 175.04 0.300739 175.064C0.241505 175.089 0.187688 175.124 0.142379 175.17C0.0970702 175.215 0.0611663 175.268 0.0367324 175.328C0.0122986 175.387 -0.0001866 175.45 2.15778e-06 175.514Z" fill="#CCCCCC"/>
<path d="M185.051 170.747H181.088L179.203 155.5L185.053 155.5L185.051 170.747Z" fill="#FFB6B6"/>
<path d="M185.191 174.871L173.004 174.87V174.717C173.004 173.462 173.504 172.258 174.393 171.371C175.283 170.484 176.49 169.985 177.748 169.985H177.748L179.974 168.301L184.128 169.986L185.192 169.986L185.191 174.871Z" fill="#2F2E41"/>
<path d="M167.821 151.85L164.16 153.365L156.562 140.001L161.966 137.766L167.821 151.85Z" fill="#FFB6B6"/>
<path d="M169.534 155.606L158.276 160.263L158.217 160.121C157.735 158.962 157.735 157.659 158.216 156.499C158.697 155.34 159.62 154.418 160.782 153.938L160.782 153.938L162.192 151.531L166.675 151.5L167.658 151.094L169.534 155.606Z" fill="#2F2E41"/>
<path d="M189.582 84.0112L161.456 86.9422L157.694 99.5812L144.664 120.466C144.664 120.466 153.756 135.729 152.902 135.562C152.049 135.396 153.755 139.557 154.95 139.315C156.145 139.074 157.388 141.786 156.562 142.269C155.736 142.751 159.05 146.829 159.05 146.829L164.117 142.294C165.195 134.186 163.892 126.97 159.254 121.005L173.769 105.375L176.522 104.236L178.706 162.235L186.788 162.367C189.018 150.926 190.138 140.629 188.395 133.283C188.395 133.283 188.645 111.215 189.601 111.456C190.557 111.698 189.746 108.823 189.746 108.823C189.746 108.823 188.909 106.374 189.938 105.359C190.966 104.343 190.324 98.3689 190.324 98.3689C192.023 92.7152 191.512 88.0472 189.582 84.0112Z" fill="#2F2E41"/>
<path d="M167.956 37.3694L175.732 35.3598L179.362 30.3667L187.981 31.4236L189.816 38.2342L195.953 41.787C195.953 41.787 192.561 77.5684 193.368 79.5331C194.175 81.4978 197.067 81.3356 194.597 83.8683C192.126 86.401 191.799 85.3809 192.372 88.1382C192.946 90.8956 197.125 93.8136 192.372 93.7847C187.62 93.7557 158.944 93.3471 159.763 90.0784C160.583 86.8096 160.57 87.6397 161.805 85.5902C163.041 83.5408 163.872 84.6861 163.456 81.6619C163.041 78.6377 163.45 76.5947 163.45 74.9603C163.45 73.3259 164.823 58.474 164.823 58.474L167.956 37.3694Z" fill="#E6E6E6"/>
<path d="M183.65 29.4439C188.695 29.4439 192.784 25.3648 192.784 20.3331C192.784 15.3014 188.695 11.2224 183.65 11.2224C178.605 11.2224 174.516 15.3014 174.516 20.3331C174.516 25.3648 178.605 29.4439 183.65 29.4439Z" fill="#FFB6B6"/>
<path d="M174.078 14.8193C174.88 15.4657 174.697 18.6097 175.59 18.0973C176.484 17.5848 176.67 16.6671 177.699 16.6575C178.538 16.7037 179.329 17.0609 179.918 17.6591C180.028 17.7578 180.132 17.8613 180.233 17.9637C180.326 17.9313 180.417 17.902 180.513 17.8779C181.235 17.7022 181.997 17.8092 182.642 18.1769C182.046 18.2193 181.479 18.4474 181.02 18.8289C181.217 19.0485 181.416 19.2693 181.626 19.4734C183.375 21.1833 186.962 19.3624 189.374 18.9515C187.365 21.1391 187.761 22.3603 188.261 25.2843L188.263 25.4441C188.366 24.7697 190.531 24.8034 190.174 25.6981C189.726 26.582 189.165 27.4045 188.505 28.145C191.455 26.1065 193.837 23.2964 194.363 19.9021C194.472 19.1884 194.682 18.4602 194.478 17.7643C194.392 17.4125 194.191 17.0992 193.907 16.8734C193.623 16.6475 193.272 16.5219 192.909 16.5161C193.237 15.4748 193.277 14.3642 193.023 13.3023C192.77 12.2404 192.232 11.2669 191.468 10.4853C190.704 9.70371 189.742 9.14321 188.684 8.86341C187.626 8.58362 186.512 8.59498 185.46 8.89629C184.501 9.23644 183.565 9.63937 182.658 10.1025C181.744 10.5674 180.708 10.7423 179.691 10.6038C179.057 10.4732 178.415 10.1459 177.794 10.3312C177.075 10.5465 176.765 11.3047 176.477 12.0366C177.018 12.2339 177.488 12.5877 177.827 13.0528C177.268 12.8468 176.657 12.822 176.082 12.9821C176.072 12.984 176.061 12.9868 176.051 12.9905C175.399 14.1552 175.362 14.4408 174.078 14.8193Z" fill="#2F2E41"/>
<path d="M177.089 32.9193C172.411 32.5436 168.139 36.1124 166.191 40.3719C164.243 44.6314 164.116 49.4635 164.021 54.1441L163.727 68.6936C163.684 70.8466 163.64 73 163.533 75.1507C163.477 77.2435 163.213 79.3257 162.745 81.3664C161.791 85.1111 159.693 88.4481 157.625 91.7154C162.919 93.3114 168.302 94.5939 173.748 95.556C176.467 86.7828 179.218 77.7576 178.549 68.5989C178.196 63.7525 176.889 59.0208 176.392 54.1869C175.688 47.3408 176.621 40.4442 177.552 33.6251" fill="#3F3D56"/>
<path d="M188.448 33.7378C193.082 34.481 196.382 38.9595 197.26 43.5585C198.137 48.1575 197.111 52.8815 196.088 57.4507C195.029 62.185 193.969 66.9193 192.91 71.6536C192.439 73.7553 191.969 75.8574 191.561 77.9721C191.165 80.0264 192.824 82.6612 192.843 84.7531C192.878 88.6166 192.126 91.7987 193.356 95.4622C187.834 95.7587 182.299 95.7293 176.78 95.3741C176.227 86.2078 175.704 76.7893 178.534 68.051C180.032 63.427 182.428 59.1402 184.061 54.5622C186.375 48.0785 187.111 41.1583 187.83 34.3138" fill="#3F3D56"/>
<path d="M191.536 99.7878C191.192 99.1895 191.095 98.481 191.267 97.8128C191.438 97.1447 191.865 96.5697 192.455 96.2102C192.576 96.139 192.703 96.078 192.834 96.0277L192.243 75.9591L198.644 74.334L196.203 97.7147C196.37 98.2735 196.347 98.8718 196.138 99.4161C195.928 99.9605 195.543 100.42 195.044 100.724C194.758 100.894 194.442 101.006 194.113 101.054C193.783 101.102 193.448 101.085 193.125 101.003C192.803 100.922 192.5 100.778 192.233 100.58C191.966 100.382 191.741 100.133 191.571 99.8478C191.559 99.828 191.547 99.8079 191.536 99.7878Z" fill="#FFB6B6"/>
<path d="M191.068 41.755C191.068 41.755 195.536 37.986 199.296 45.522C203.056 53.0579 200.955 70.2738 200.426 71.1926C199.896 72.1114 199.574 70.8315 199.863 73.2807C200.099 75.2726 198.697 75.0234 199.2 75.4485C200.526 76.5693 196.813 76.697 198.72 77.6846C200.627 78.6722 192.093 78.8571 192.093 78.8571C192.093 78.8571 191.06 78.1218 191.777 75.3491C192.18 73.7917 193.188 73.222 192.113 72.5013C191.038 71.7807 193.224 69.5528 193.225 69.064C193.226 68.5751 189.816 57.8834 189.816 57.8834L191.068 41.755Z" fill="#3F3D56"/>
<path d="M154.094 134.591C152.925 134.591 151.772 134.32 150.727 133.798C149.681 133.277 148.772 132.52 148.071 131.587L129.605 107.03C129.012 106.241 128.58 105.343 128.334 104.387C128.088 103.432 128.033 102.438 128.173 101.461C128.313 100.484 128.644 99.5449 129.148 98.696C129.652 97.8472 130.318 97.1057 131.109 96.5138C131.901 95.922 132.801 95.4914 133.759 95.2468C134.717 95.0021 135.714 94.9481 136.693 95.0879C137.672 95.2276 138.614 95.5584 139.465 96.0613C140.316 96.5642 141.059 97.2294 141.652 98.0188L153.733 114.084L184.761 67.6629C185.309 66.8423 186.014 66.1376 186.836 65.5888C187.657 65.0401 188.579 64.6581 189.549 64.4647C190.518 64.2713 191.517 64.2702 192.486 64.4616C193.456 64.653 194.379 65.0331 195.202 65.5801C196.024 66.1271 196.731 66.8304 197.281 67.6498C197.831 68.4692 198.214 69.3887 198.408 70.3558C198.602 71.3228 198.603 72.3184 198.411 73.2859C198.219 74.2533 197.838 75.1736 197.29 75.9941L160.359 131.247C159.691 132.246 158.792 133.071 157.739 133.653C156.685 134.234 155.507 134.555 154.303 134.589C154.233 134.59 154.163 134.591 154.094 134.591Z" fill="#5D5FEF"/>
<path d="M168.172 96.3018C168.549 95.7235 168.684 95.0213 168.55 94.3448C168.415 93.6682 168.022 93.0706 167.452 92.6791C167.335 92.6014 167.212 92.5334 167.084 92.476L168.786 72.4707L162.484 70.4951L163.626 93.9746C163.428 94.5234 163.418 95.122 163.598 95.6771C163.777 96.2322 164.135 96.7125 164.617 97.043C164.893 97.2285 165.203 97.3579 165.529 97.424C165.855 97.49 166.191 97.4914 166.517 97.4279C166.844 97.3645 167.154 97.2375 167.432 97.0543C167.709 96.871 167.948 96.6351 168.134 96.3599C168.147 96.3407 168.159 96.3214 168.172 96.3018Z" fill="#FFB6B6"/>
<path d="M171.857 38.4248C171.857 38.4248 167.604 34.4153 163.433 41.7325C159.261 49.0496 160.405 66.355 160.882 67.3016C161.36 68.2483 161.753 66.988 161.328 69.4175C160.983 71.3934 162.396 71.2219 161.87 71.6186C160.484 72.6646 164.184 72.9967 162.226 73.8777C160.267 74.7587 168.778 75.4138 168.778 75.4138C168.778 75.4138 169.85 74.7365 169.287 71.9285C168.972 70.3513 167.997 69.7269 169.11 69.0666C170.224 68.4064 168.165 66.0614 168.19 65.5732C168.216 65.085 172.213 54.5976 172.213 54.5976L171.857 38.4248Z" fill="#3F3D56"/>
</g>
<defs>
<clipPath id="clip0_605_79324">
<rect width="294" height="176" fill="white"/>
</clipPath>
</defs>
</svg>
